<svg width="212" height="212" viewBox="0 0 212 212" fill="none" xmlns="http://www.w3.org/2000/svg">
  <g clip-path="url(#clip0_9_64)">
    <path opacity="0.88" fill-rule="evenodd" clip-rule="evenodd"
      d="M72.6925 0.000147792C60.7263 0.000147792 49.2547 4.74659 40.7983 13.203L3.10279e-05 54.013V72.6926C3.10279e-05 85.8837 5.66514 97.7557 14.6987 106C10.062 110.22 6.35916 115.364 3.82783 121.1C1.29651 126.836 -0.00733389 133.038 3.10279e-05 139.308V157.987L40.7983 198.797C45.1081 203.109 50.2477 206.502 55.9061 208.771C61.5646 211.039 67.6244 212.137 73.7191 211.997C79.8139 211.857 85.817 210.483 91.3654 207.957C96.9139 205.431 101.892 201.806 106 197.301C110.108 201.806 115.086 205.431 120.635 207.957C126.183 210.483 132.186 211.857 138.281 211.997C144.376 212.137 150.436 211.039 156.094 208.771C161.752 206.502 166.892 203.109 171.202 198.797L212 157.987V139.308C212 126.117 206.335 114.245 197.301 106C201.938 101.78 205.641 96.6365 208.172 90.9004C210.704 85.1644 212.007 78.9624 212 72.6926V54.013L171.202 13.1913C166.891 8.88031 161.751 5.48838 156.092 3.22055C150.433 0.952721 144.373 -0.143887 138.278 -0.00296733C132.184 0.137952 126.181 1.51347 120.633 4.04042C115.085 6.56737 110.107 10.1932 106 14.6988C101.78 10.0622 96.6364 6.35928 90.9003 3.82795C85.1643 1.29662 78.9622 -0.00721713 72.6925 0.000147792ZM136.528 106C136.015 105.537 135.512 105.062 135.02 104.575L106 75.5428L76.9796 104.587C76.4918 105.069 75.9931 105.54 75.4838 106L76.9796 107.425L106 136.457L135.02 107.425C135.515 106.942 136.01 106.459 136.516 106H136.528ZM117.778 157.987V166.915C117.778 171.173 119.042 175.336 121.408 178.877C123.775 182.417 127.138 185.176 131.073 186.805C135.007 188.434 139.337 188.86 143.513 188.028C147.69 187.196 151.526 185.144 154.536 182.132L188.444 148.235V139.308C188.444 135.049 187.181 130.886 184.814 127.346C182.448 123.805 179.084 121.046 175.15 119.417C171.215 117.788 166.885 117.363 162.709 118.195C158.532 119.027 154.696 121.079 151.686 124.091L117.778 157.987ZM94.2223 157.987L60.314 124.091C57.3037 121.079 53.4677 119.027 49.2912 118.195C45.1146 117.363 40.7852 117.788 36.8504 119.417C32.9157 121.046 29.5523 123.805 27.1859 127.346C24.8194 130.886 23.556 135.049 23.5556 139.308V148.235L57.4638 182.132C60.4741 185.144 64.3102 187.196 68.4867 188.028C72.6632 188.86 76.9927 188.434 80.9274 186.805C84.8622 185.176 88.2255 182.417 90.592 178.877C92.9585 175.336 94.2218 171.173 94.2223 166.915V157.987ZM94.2223 45.0855V54.013L60.314 87.9095C57.3037 90.9217 53.4677 92.9735 49.2912 93.8054C45.1146 94.6373 40.7852 94.212 36.8504 92.5831C32.9157 90.9542 29.5523 88.195 27.1859 84.6545C24.8194 81.114 23.556 76.9512 23.5556 72.6926V63.765L57.4638 29.8686C60.4741 26.8564 64.3102 24.8045 68.4867 23.9726C72.6632 23.1407 76.9927 23.5661 80.9274 25.195C84.8622 26.8239 88.2255 29.583 90.592 33.1236C92.9585 36.6641 94.2218 40.8269 94.2223 45.0855ZM151.686 87.9095L117.778 54.013V45.0855C117.778 40.8269 119.042 36.6641 121.408 33.1236C123.775 29.583 127.138 26.8239 131.073 25.195C135.007 23.5661 139.337 23.1407 143.513 23.9726C147.69 24.8045 151.526 26.8564 154.536 29.8686L188.444 63.765V72.6926C188.444 76.9512 187.181 81.114 184.814 84.6545C182.448 88.195 179.084 90.9542 175.15 92.5831C171.215 94.212 166.885 94.6373 162.709 93.8054C158.532 92.9735 154.696 90.9217 151.686 87.9095Z"
      fill="#0FDB79" />
  </g>
  <defs>
    <clipPath id="clip0_9_64">
      <rect width="212" height="212" fill="white" />
    </clipPath>
  </defs>
</svg>